<svg xmlns="http://www.w3.org/2000/svg" width="49" height="48" viewBox="0 0 49 48" fill="none"><path d="M27.062 24.0816L29.8547 20.5909C30.1996 20.1605 30.3727 19.944 30.4529 19.7236C30.6059 19.3036 30.554 18.8352 30.3124 18.459C30.1858 18.2617 29.9696 18.0895 29.539 17.7437C29.1076 17.3992 28.8914 17.227 28.671 17.1468C28.2507 16.9928 27.7836 17.0454 27.4074 17.287C27.2091 17.4139 27.0366 17.6291 26.6921 18.0605L23.8993 21.5512M27.062 24.0816L17.3769 36.1884C17.0314 36.62 16.859 36.8352 16.6619 36.9628C16.2857 37.2044 15.8174 37.2563 15.3974 37.1033C15.1766 37.0221 14.9614 36.8497 14.53 36.5051C14.0987 36.1606 13.8832 35.9872 13.7566 35.7898C13.515 35.4136 13.4624 34.9465 13.6152 34.5256C13.6963 34.3048 13.8688 34.0896 14.2133 33.6582L23.8993 21.5512M27.062 24.0816L23.8993 21.5512" stroke="#EAE7E0" stroke-width="1.6" stroke-linecap="round" stroke-linejoin="round"></path><path d="M32.8572 9.82275L32.7551 10.2351C32.6208 10.7758 32.553 11.0457 32.3855 11.2564C32.2167 11.4663 31.9679 11.5914 31.4701 11.8415L31.0904 12.0321L31.5028 12.1342C32.0425 12.2688 32.3134 12.3363 32.5231 12.5041C32.734 12.6725 32.859 12.9214 33.1082 13.4194L33.2988 13.7991L33.4018 13.3865C33.5361 12.8458 33.603 12.5761 33.7714 12.3652C33.9402 12.1553 34.189 12.0302 34.6868 11.7801L35.0656 11.5898L34.6541 11.4874C34.1135 11.3531 33.8428 11.2866 33.6329 11.1178C33.422 10.9494 33.2979 10.7002 33.0477 10.2025L32.8572 9.82275Z" stroke="#EAE7E0" stroke-width="1.6" stroke-linecap="round" stroke-linejoin="round"></path><path d="M34.3299 23.0747L34.2268 23.4874C34.0925 24.028 34.0256 24.2977 33.8572 24.5086C33.6884 24.7186 33.4396 24.8436 32.9418 25.0938L32.5631 25.284L32.9745 25.3864C33.5151 25.5207 33.7851 25.5885 33.9957 25.756C34.2057 25.9248 34.3307 26.1736 34.5809 26.6714L34.7714 27.0511L34.8735 26.6387C35.0078 26.0981 35.0756 25.8281 35.2431 25.6175C35.4119 25.4075 35.6607 25.2824 36.1585 25.0323L36.5382 24.8418L36.1258 24.7397C35.5852 24.6053 35.3152 24.5376 35.1046 24.3701C34.8946 24.2013 34.7696 23.9524 34.5194 23.4547L34.3299 23.0747Z" stroke="#EAE7E0" stroke-width="1.6" stroke-linecap="round" stroke-linejoin="round"></path><path d="M20.9304 11.1489L20.8283 11.5613C20.6937 12.101 20.6262 12.3719 20.4584 12.5816C20.29 12.7925 20.0411 12.9176 19.5431 13.1667L19.1634 13.3573L19.576 13.4603C20.1167 13.5947 20.3863 13.6615 20.5973 13.8299C20.8072 13.9987 20.932 14.2466 21.1821 14.7443L21.3727 15.1241L21.4751 14.7126C21.6094 14.172 21.6759 13.9014 21.8447 13.6914C22.0131 13.4805 22.2623 13.3564 22.76 13.1062L23.1388 12.916L22.7274 12.8136C22.1867 12.6793 21.9168 12.6115 21.7059 12.443C21.4962 12.2752 21.3711 12.0264 21.121 11.5287L20.9304 11.1489Z" stroke="#EAE7E0" stroke-width="1.6" stroke-linecap="round" stroke-linejoin="round"></path></svg>