<svg xmlns="http://www.w3.org/2000/svg" width="34" height="32" viewBox="0 0 34 32" fill="none"><g opacity="0.8"><path d="M23.6095 10.0736C22.8425 12.5342 20.2261 13.9071 17.7655 13.14C15.3049 12.373 13.9321 9.7566 14.6991 7.29605C15.4661 4.83548 18.0825 3.4626 20.5431 4.22963C23.0037 4.99664 24.3765 7.61308 23.6095 10.0736Z" stroke="black" stroke-width="1.79988" stroke-linecap="round" stroke-linejoin="round"></path><path d="M27.5187 26.6537C26.7517 29.1143 24.1353 30.4871 21.6747 29.7201C19.2141 28.9531 17.8413 26.3367 18.6083 23.8762C19.3753 21.4155 21.9917 20.0427 24.4523 20.8097C26.9128 21.5767 28.2857 24.1931 27.5187 26.6537Z" stroke="black" stroke-width="1.79988" stroke-linecap="round" stroke-linejoin="round"></path><path d="M10.9728 21.4955C10.2058 23.9561 7.58935 25.3289 5.1288 24.5619C2.66825 23.7949 1.29535 21.1785 2.06236 18.7179C2.82939 16.2573 5.44584 14.8845 7.9064 15.6515C10.3669 16.4185 11.7398 19.0349 10.9728 21.4955Z" stroke="black" stroke-width="1.79988" stroke-linecap="round" stroke-linejoin="round"></path></g></svg>