<svg xmlns="http://www.w3.org/2000/svg" width="51" height="51" viewBox="0 0 51 51" fill="none"><rect x="0.571289" y="0.313477" width="50.2113" height="50.2113" rx="8.36854" fill="white" fill-opacity="0.1"></rect><rect x="1.09432" y="0.83651" width="49.1652" height="49.1652" rx="7.84551" stroke="white" stroke-opacity="0.1" stroke-width="1.04607"></rect><mask id="mask0_1076_8160" style="mask-type:luminance" maskUnits="userSpaceOnUse" x="6" y="5" width="40" height="40"><path d="M46 5H6V45H46V5Z" fill="white"></path></mask><g mask="url(#mask0_1076_8160)"><path d="M26.082 12.6094V10.8936" stroke="#1B1B1B" stroke-width="1.04607" stroke-linecap="round" stroke-linejoin="round"></path><path d="M28.6113 13.6952L29.7297 12.3936" stroke="#1B1B1B" stroke-width="1.04607" stroke-linecap="round" stroke-linejoin="round"></path><path d="M23.7705 13.6952L22.6514 12.3936" stroke="#1B1B1B" stroke-width="1.04607" stroke-linecap="round" stroke-linejoin="round"></path><path d="M20.339 33.3912C20.339 33.3912 19.2979 31.1402 18.7203 30.6777C18.1427 30.2152 16.1926 30.3831 15.1702 29.2649C14.147 28.1468 12.6505 26.1443 11.9238 24.8038C11.638 24.2771 12.2052 23.3151 12.9815 23.5213C13.757 23.7274 15.7424 25.5728 15.7424 25.5728C15.7424 25.5728 12.6994 20.5311 12.1961 19.4204C11.6928 18.3098 12.1224 17.6992 12.7112 17.3826C13.2999 17.0669 14.1337 17.8572 14.1337 17.8572C14.1337 17.8572 13.3102 16.3528 13.0288 15.6353C12.7466 14.917 13.0827 14.1434 13.7666 13.9916C14.4497 13.8389 14.9957 14.2359 15.375 14.9881C15.7534 15.7394 16.0056 16.2297 16.0056 16.2297C16.0056 16.2297 15.1199 14.7011 16.2402 14.2196C17.7749 13.5598 18.9882 16.5326 18.9882 16.5326C18.9882 16.5326 18.4142 15.24 19.1027 14.7632C20.4075 13.8601 21.6278 16.4071 22.482 17.977C23.3354 19.5477 24.7462 23.1033 24.8845 24.7896C25.022 26.4751 24.8628 27.813 24.8628 27.813L26.0461 30.2077L20.339 33.3912Z" fill="#F1F1F1"></path><path d="M20.339 33.3912C20.339 33.3912 19.2979 31.1402 18.7203 30.6777C18.1427 30.2152 16.1926 30.383 15.1702 29.2649C14.147 28.1468 12.6505 26.1443 11.9238 24.8038C11.638 24.2771 12.2052 23.3151 12.9815 23.5213C13.757 23.7274 15.7424 25.5728 15.7424 25.5728C15.7424 25.5728 12.6994 20.5311 12.1961 19.4204C11.6928 18.3098 12.1224 17.6992 12.7112 17.3826C13.2999 17.0669 14.1337 17.8572 14.1337 17.8572C14.1337 17.8572 13.3102 16.3528 13.0288 15.6353C12.7466 14.917 13.0827 14.1434 13.7666 13.9916C14.4497 13.8389 14.9957 14.2359 15.375 14.9881C15.7534 15.7394 16.0056 16.2297 16.0056 16.2297C16.0056 16.2297 15.1199 14.7011 16.2402 14.2196C17.7749 13.5598 18.9882 16.5326 18.9882 16.5326C18.9882 16.5326 18.4142 15.24 19.1027 14.7632C20.4075 13.8601 21.6278 16.4071 22.482 17.977C23.3354 19.5477 24.7462 23.1033 24.8845 24.7896C25.022 26.4751 24.8628 27.813 24.8628 27.813L26.0461 30.2077L20.339 33.3912Z" stroke="#1B1B1B" stroke-width="1.04607" stroke-linecap="round" stroke-linejoin="round"></path><path d="M14.1348 17.8584L16.1816 21.5798" stroke="#1B1B1B" stroke-width="1.04607" stroke-linecap="round" stroke-linejoin="round"></path><path d="M16.0068 16.2295L18.2814 20.5792" stroke="#1B1B1B" stroke-width="1.04607" stroke-linecap="round" stroke-linejoin="round"></path><path d="M18.9883 16.5322L20.6152 19.9526" stroke="#1B1B1B" stroke-width="1.04607" stroke-linecap="round" stroke-linejoin="round"></path><path d="M20.0394 26.8277C20.0394 26.8277 19.3861 25.484 17.8049 25.323C16.2246 25.1628 15.7436 25.5726 15.7436 25.5726" stroke="#1B1B1B" stroke-width="1.04607" stroke-linecap="round" stroke-linejoin="round"></path><path d="M21.1183 20.1058L16.2945 22.3152" stroke="#1B1B1B" stroke-width="1.04607" stroke-linecap="round" stroke-linejoin="round"></path><path d="M27.6393 34.5154L23.1277 37.0343C22.4212 37.4284 21.528 37.1764 21.1339 36.4698L20.3474 35.0617C19.9533 34.3552 20.2062 33.462 20.9127 33.0671L25.4243 30.5491C26.1309 30.1542 27.024 30.4062 27.4181 31.1127L28.2046 32.5208C28.5987 33.2274 28.3459 34.1205 27.6393 34.5154Z" fill="#F1F1F1"></path><path d="M27.6393 34.5154L23.1277 37.0343C22.4212 37.4284 21.528 37.1764 21.1339 36.4698L20.3474 35.0617C19.9533 34.3552 20.2062 33.462 20.9127 33.0671L25.4243 30.5491C26.1309 30.1542 27.024 30.4062 27.4181 31.1127L28.2046 32.5208C28.5987 33.2274 28.3459 34.1205 27.6393 34.5154Z" stroke="#1B1B1B" stroke-width="1.04607" stroke-linecap="round" stroke-linejoin="round"></path><path d="M31.1196 34.9693C31.1196 34.9693 32.2264 32.5761 32.8401 32.0846C33.4538 31.5922 35.5258 31.7694 36.6127 30.5801C37.6987 29.3915 39.2894 27.2647 40.062 25.8391C40.3647 25.2796 39.7629 24.2558 38.9377 24.4746C38.1133 24.6933 36.0035 26.6569 36.0035 26.6569C36.0035 26.6569 39.2371 21.2965 39.7715 20.1152C40.3068 18.9348 39.8489 18.2864 39.2223 17.9505C38.5965 17.6146 37.712 18.4552 37.712 18.4552C37.712 18.4552 38.5854 16.8564 38.8851 16.0928C39.1839 15.33 38.8268 14.5059 38.0994 14.3441C37.3728 14.1822 36.7922 14.6057 36.3906 15.405C35.988 16.2043 35.7206 16.725 35.7206 16.725C35.7206 16.725 36.6611 15.0994 35.4702 14.5876C33.8389 13.8872 32.5508 17.0472 32.5508 17.0472C32.5508 17.0472 33.16 15.674 32.4283 15.1672C31.0408 14.2082 30.2584 16.7816 29.351 18.4509C28.4445 20.1202 26.8575 24.0338 26.7112 25.8261C26.5649 27.6185 26.309 29.0407 26.309 29.0407L25.0528 31.5877L31.1196 34.9693Z" fill="#F1F1F1"></path><path d="M31.1196 34.9693C31.1196 34.9693 32.2264 32.5761 32.8401 32.0846C33.4538 31.5922 35.5258 31.7694 36.6127 30.5801C37.6987 29.3915 39.2894 27.2647 40.062 25.8391C40.3647 25.2796 39.7629 24.2558 38.9377 24.4746C38.1133 24.6933 36.0035 26.6569 36.0035 26.6569C36.0035 26.6569 39.2371 21.2965 39.7715 20.1152C40.3068 18.9348 39.8489 18.2864 39.2223 17.9505C38.5965 17.6146 37.712 18.4552 37.712 18.4552C37.712 18.4552 38.5854 16.8564 38.8851 16.0928C39.1839 15.33 38.8268 14.5059 38.0994 14.3441C37.3728 14.1822 36.7922 14.6057 36.3906 15.405C35.988 16.2043 35.7206 16.725 35.7206 16.725C35.7206 16.725 36.6611 15.0994 35.4702 14.5876C33.8389 13.8872 32.5508 17.0472 32.5508 17.0472C32.5508 17.0472 33.16 15.674 32.4283 15.1672C31.0408 14.2082 30.2584 16.7816 29.351 18.4509C28.4445 20.1202 26.8575 24.0338 26.7112 25.8261C26.5649 27.6185 26.309 29.0407 26.309 29.0407L25.0528 31.5877L31.1196 34.9693Z" stroke="#1B1B1B" stroke-width="1.04607" stroke-linecap="round" stroke-linejoin="round"></path><path d="M37.7119 18.4563L35.45 22.2115" stroke="#1B1B1B" stroke-width="1.04607" stroke-linecap="round" stroke-linejoin="round"></path><path d="M35.7194 16.7254L33.3035 21.3496" stroke="#1B1B1B" stroke-width="1.04607" stroke-linecap="round" stroke-linejoin="round"></path><path d="M32.5521 17.0474L30.9718 20.6826" stroke="#1B1B1B" stroke-width="1.04607" stroke-linecap="round" stroke-linejoin="round"></path><path d="M23.3287 36.1454L28.1915 38.8587C28.925 39.2672 29.8513 39.0045 30.2598 38.2717L31.1312 36.7105C31.5405 35.9778 31.2777 35.0507 30.5442 34.6414L25.6831 31.928C24.9495 31.5187 24.0224 31.7815 23.6131 32.5151L22.7417 34.0772C22.3324 34.8099 22.5952 35.7361 23.3287 36.1454Z" fill="#F1F1F1"></path><path d="M23.3287 36.1454L28.1915 38.8587C28.925 39.2672 29.8513 39.0045 30.2598 38.2717L31.1312 36.7105C31.5405 35.9778 31.2777 35.0507 30.5442 34.6414L25.6831 31.928C24.9495 31.5187 24.0224 31.7815 23.6131 32.5151L22.7417 34.0772C22.3324 34.8099 22.5952 35.7361 23.3287 36.1454Z" stroke="#1B1B1B" stroke-width="1.04607" stroke-linecap="round" stroke-linejoin="round"></path></g></svg>