<svg xmlns="http://www.w3.org/2000/svg" width="51" height="51" viewBox="0 0 51 51" fill="none"><rect x="0.256836" y="0.313477" width="50.2113" height="50.2113" rx="8.36854" fill="white" fill-opacity="0.1"></rect><rect x="0.77987" y="0.83651" width="49.1652" height="49.1652" rx="7.84551" stroke="white" stroke-opacity="0.1" stroke-width="1.04607"></rect><mask id="mask0_1076_8078" style="mask-type:luminance" maskUnits="userSpaceOnUse" x="5" y="5" width="40" height="40"><path d="M45 5H5V45H45V5Z" fill="white"></path></mask><g mask="url(#mask0_1076_8078)"><path d="M10.8604 29.7148V34.4273C10.8604 37.0307 12.9695 39.1423 15.5729 39.1423C18.1762 39.1423 20.287 37.0307 20.287 34.4273V29.7148H10.8604Z" fill="#F1F1F1"></path><path d="M10.8604 29.7148V34.4273C10.8604 37.0307 12.9695 39.1423 15.5729 39.1423C18.1762 39.1423 20.287 37.0307 20.287 34.4273V29.7148H10.8604Z" stroke="#1B1B1B" stroke-width="1.04607" stroke-linecap="round" stroke-linejoin="round"></path><path d="M10.8604 29.7138H20.287V20.2871H10.8604V29.7138Z" fill="#F1F1F1"></path><path d="M10.8604 29.7138H20.287V20.2871H10.8604V29.7138Z" stroke="#1B1B1B" stroke-width="1.04607" stroke-linecap="round" stroke-linejoin="round"></path><path d="M10.8604 12.1302V20.286H20.287V12.1302C20.287 11.4285 19.7179 10.8594 19.0154 10.8594H12.1304C11.4287 10.8594 10.8604 11.4285 10.8604 12.1302Z" fill="#F1F1F1"></path><path d="M10.8604 12.1302V20.286H20.287V12.1302C20.287 11.4285 19.7179 10.8594 19.0154 10.8594H12.1304C11.4287 10.8594 10.8604 11.4285 10.8604 12.1302Z" stroke="#1B1B1B" stroke-width="1.04607" stroke-linecap="round" stroke-linejoin="round"></path><path d="M15.2809 27.7633L12.0932 31.2361C10.3328 33.154 10.4604 36.1354 12.3783 37.8958C14.2961 39.6562 17.2784 39.5286 19.0388 37.6107L22.2257 34.1379L15.2809 27.7633Z" fill="#F1F1F1"></path><path d="M15.2809 27.7633L12.0932 31.2361C10.3328 33.154 10.4604 36.1354 12.3783 37.8958C14.2961 39.6562 17.2784 39.5286 19.0388 37.6107L22.2257 34.1379L15.2809 27.7633Z" stroke="#1B1B1B" stroke-width="1.04607" stroke-linecap="round" stroke-linejoin="round"></path><path d="M21.6568 20.8185L15.2821 27.7633L22.2269 34.1379L28.6016 27.1931L21.6568 20.8185Z" fill="#F1F1F1"></path><path d="M21.6568 20.8185L15.2821 27.7633L22.2269 34.1379L28.6016 27.1931L21.6568 20.8185Z" stroke="#1B1B1B" stroke-width="1.04607" stroke-linecap="round" stroke-linejoin="round"></path><path d="M27.1717 14.8101L21.6561 20.819L28.6009 27.1936L34.1165 21.1848C34.5915 20.6681 34.5571 19.8639 34.0396 19.3889L28.9676 14.7332C28.4501 14.2582 27.6467 14.2926 27.1717 14.8101Z" fill="#F1F1F1"></path><path d="M27.1717 14.8101L21.6561 20.819L28.6009 27.1936L34.1165 21.1848C34.5915 20.6681 34.5571 19.8639 34.0396 19.3889L28.9676 14.7332C28.4501 14.2582 27.6467 14.2926 27.1717 14.8101Z" stroke="#1B1B1B" stroke-width="1.04607" stroke-linecap="round" stroke-linejoin="round"></path><path d="M19.8639 29.3292L15.1686 29.7319C12.5748 29.9544 10.6519 32.2362 10.8744 34.83C11.0968 37.4238 13.3804 39.3474 15.9742 39.1249L20.6695 38.7223L19.8639 29.3292Z" fill="#F1F1F1"></path><path d="M19.8639 29.3292L15.1686 29.7319C12.5748 29.9544 10.6519 32.2362 10.8744 34.83C11.0968 37.4238 13.3804 39.3474 15.9742 39.1249L20.6695 38.7223L19.8639 29.3292Z" stroke="#1B1B1B" stroke-width="1.04607" stroke-linecap="round" stroke-linejoin="round"></path><path d="M29.2574 28.5226L19.8652 29.3281L20.6708 38.7211L30.063 37.9156L29.2574 28.5226Z" fill="#F1F1F1"></path><path d="M29.2574 28.5226L19.8652 29.3281L20.6708 38.7211L30.063 37.9156L29.2574 28.5226Z" stroke="#1B1B1B" stroke-width="1.04607" stroke-linecap="round" stroke-linejoin="round"></path><path d="M37.3838 27.8265L29.2578 28.5234L30.0634 37.9165L38.1894 37.2195C38.8885 37.1596 39.407 36.5438 39.3469 35.8439L38.7585 28.9833C38.6986 28.2842 38.0829 27.7665 37.3838 27.8265Z" fill="#F1F1F1"></path><path d="M37.3838 27.8265L29.2578 28.5234L30.0634 37.9165L38.1894 37.2195C38.8885 37.1596 39.407 36.5438 39.3469 35.8439L38.7585 28.9833C38.6986 28.2842 38.0829 27.7665 37.3838 27.8265Z" stroke="#1B1B1B" stroke-width="1.04607" stroke-linecap="round" stroke-linejoin="round"></path><path d="M14.9685 34.4791C14.9401 34.1469 15.1868 33.8548 15.5198 33.8262C15.8519 33.7977 16.144 34.0437 16.1725 34.3758C16.2009 34.7079 15.9551 35.0017 15.623 35.0301C15.2901 35.0587 14.997 34.8112 14.9685 34.4791Z" stroke="#1B1B1B" stroke-width="1.04607" stroke-linecap="round" stroke-linejoin="round"></path></g></svg>