<svg xmlns="http://www.w3.org/2000/svg" width="51" height="51" viewBox="0 0 51 51" fill="none"><rect x="0.571289" y="0.519531" width="50.2113" height="50.2113" rx="8.36854" fill="white" fill-opacity="0.1"></rect><rect x="1.09432" y="1.04257" width="49.1652" height="49.1652" rx="7.84551" stroke="white" stroke-opacity="0.1" stroke-width="1.04607"></rect><mask id="mask0_1076_8125" style="mask-type:luminance" maskUnits="userSpaceOnUse" x="5" y="5" width="41" height="41"><path d="M45.5713 5.51953H5.57129V45.5195H45.5713V5.51953Z" fill="white"></path></mask><g mask="url(#mask0_1076_8125)"><path d="M10.0479 28.6291C8.00625 26.9299 8.20432 25.3937 10.0805 25.7713C13.3281 26.6675 19.4256 26.6838 25.9231 26.6838C33.1431 26.6838 37.4455 26.1959 41.1561 25.695C43.1499 25.5831 43.0737 26.9224 41.1637 28.6032C37.9979 31.3891 32.65 35.0116 26.2525 35.0116C19.1067 35.0116 13.4062 31.4249 10.0479 28.6291Z" fill="#F3F3F3"></path><path d="M10.0479 28.6291C8.00625 26.9299 8.20432 25.3937 10.0805 25.7713C13.3281 26.6675 19.4256 26.6838 25.9231 26.6838C33.1431 26.6838 37.4455 26.1959 41.1561 25.695C43.1499 25.5831 43.0738 26.9224 41.1638 28.6032C37.9979 31.3891 32.65 35.0116 26.2525 35.0116C19.1067 35.0116 13.4062 31.4249 10.0479 28.6291Z" stroke="black" stroke-width="1.46449" stroke-linecap="round" stroke-linejoin="round"></path><mask id="mask1_1076_8125" style="mask-type:alpha" maskUnits="userSpaceOnUse" x="7" y="24" width="37" height="12"><path d="M10.0479 28.6291C8.00625 26.9299 8.20432 25.3937 10.0805 25.7713C13.3281 26.6675 19.4256 26.6838 25.9231 26.6838C33.1431 26.6838 37.4455 26.1959 41.1561 25.695C43.1499 25.5831 43.0737 26.9224 41.1637 28.6032C37.9979 31.3891 32.65 35.0116 26.2525 35.0116C19.1067 35.0116 13.4062 31.4249 10.0479 28.6291Z" fill="#F3F3F3"></path><path d="M10.0479 28.6291C8.00625 26.9299 8.20432 25.3937 10.0805 25.7713C13.3281 26.6675 19.4256 26.6838 25.9231 26.6838C33.1431 26.6838 37.4455 26.1959 41.1561 25.695C43.1499 25.5831 43.0738 26.9224 41.1638 28.6032C37.9979 31.3891 32.65 35.0116 26.2525 35.0116C19.1067 35.0116 13.4062 31.4249 10.0479 28.6291Z" stroke="black" stroke-width="1.46449" stroke-linecap="round" stroke-linejoin="round"></path></mask><g mask="url(#mask1_1076_8125)"><path d="M16.4082 25.4008C16.4082 20.2433 20.5899 16.0625 25.7474 16.0625C30.9049 16.0625 35.0849 20.2433 35.0849 25.4008C35.0849 30.5583 30.9049 34.7392 25.7474 34.7392C20.5899 34.7392 16.4082 30.5583 16.4082 25.4008Z" stroke="black" stroke-width="1.46449" stroke-linecap="round" stroke-linejoin="round"></path></g><mask id="mask2_1076_8125" style="mask-type:alpha" maskUnits="userSpaceOnUse" x="7" y="24" width="37" height="12"><path d="M10.0479 28.6291C8.00625 26.9299 8.20432 25.3937 10.0805 25.7713C13.3281 26.6675 19.4256 26.6838 25.9231 26.6838C33.1431 26.6838 37.4455 26.1959 41.1561 25.695C43.1499 25.5831 43.0737 26.9224 41.1637 28.6032C37.9979 31.3891 32.65 35.0116 26.2525 35.0116C19.1067 35.0116 13.4062 31.4249 10.0479 28.6291Z" fill="#F3F3F3"></path><path d="M10.0479 28.6291C8.00625 26.9299 8.20432 25.3937 10.0805 25.7713C13.3281 26.6675 19.4256 26.6838 25.9231 26.6838C33.1431 26.6838 37.4455 26.1959 41.1561 25.695C43.1499 25.5831 43.0738 26.9224 41.1638 28.6032C37.9979 31.3891 32.65 35.0116 26.2525 35.0116C19.1067 35.0116 13.4062 31.4249 10.0479 28.6291Z" stroke="black" stroke-width="1.46449" stroke-linecap="round" stroke-linejoin="round"></path></mask><g mask="url(#mask2_1076_8125)"><path d="M22.2627 25.401C22.2627 23.476 23.8227 21.916 25.7477 21.916C27.6719 21.916 29.2327 23.476 29.2327 25.401C29.2327 27.326 27.6719 28.886 25.7477 28.886C23.8227 28.886 22.2627 27.326 22.2627 25.401Z" stroke="black" stroke-width="1.46449" stroke-linecap="round" stroke-linejoin="round"></path></g></g></svg>