<svg xmlns="http://www.w3.org/2000/svg" width="52" height="51" viewBox="0 0 52 51" fill="none"><rect x="0.896484" y="0.519531" width="50.2113" height="50.2113" rx="8.36854" fill="white" fill-opacity="0.1"></rect><rect x="1.41952" y="1.04257" width="49.1652" height="49.1652" rx="7.84551" stroke="white" stroke-opacity="0.1" stroke-width="1.04607"></rect><mask id="mask0_1076_8214" style="mask-type:luminance" maskUnits="userSpaceOnUse" x="6" y="5" width="40" height="41"><path d="M46 5.99902H6V45.999H46V5.99902Z" fill="white"></path></mask><g mask="url(#mask0_1076_8214)"><path d="M40.0251 24.0838C40.4692 27.6046 39.6201 30.9088 37.8892 33.5888C36.9417 35.0563 35.3001 35.9271 33.5534 35.9271H18.4442C16.7251 35.9271 15.0926 35.0913 14.1517 33.6513C12.7017 31.4321 11.8584 28.7788 11.8584 25.9271C11.8584 17.5879 19.0717 10.9321 27.6126 11.8754C34.0109 12.5821 39.2192 17.6971 40.0251 24.0838Z" fill="#F3F3F3"></path><path d="M40.0251 24.0838C40.4692 27.6046 39.6201 30.9088 37.8892 33.5888C36.9417 35.0563 35.3001 35.9271 33.5534 35.9271H18.4442C16.7251 35.9271 15.0926 35.0913 14.1517 33.6513C12.7017 31.4321 11.8584 28.7788 11.8584 25.9271C11.8584 17.5879 19.0717 10.9321 27.6126 11.8754C34.0109 12.5821 39.2192 17.6971 40.0251 24.0838Z" stroke="black" stroke-width="1.46449" stroke-linecap="round" stroke-linejoin="round"></path><path d="M14.2197 25.9297H14.75" stroke="black" stroke-width="1.46449" stroke-linecap="round" stroke-linejoin="round"></path><path d="M37.249 25.9297H37.7793" stroke="black" stroke-width="1.46449" stroke-linecap="round" stroke-linejoin="round"></path><path d="M25.999 14.6797V14.1494" stroke="black" stroke-width="1.46449" stroke-linecap="round" stroke-linejoin="round"></path><path d="M17.6689 17.5996L18.0442 17.9748" stroke="black" stroke-width="1.46449" stroke-linecap="round" stroke-linejoin="round"></path><path d="M33.9541 17.9748L34.3293 17.5996" stroke="black" stroke-width="1.46449" stroke-linecap="round" stroke-linejoin="round"></path><path d="M15.084 21.498L15.5759 21.6982" stroke="black" stroke-width="1.46449" stroke-linecap="round" stroke-linejoin="round"></path><path d="M36.4229 30.1611L36.9148 30.3613" stroke="black" stroke-width="1.46449" stroke-linecap="round" stroke-linejoin="round"></path><path d="M30.2314 15.5066L30.4316 15.0146" stroke="black" stroke-width="1.46449" stroke-linecap="round" stroke-linejoin="round"></path><path d="M21.415 15.0781L21.6218 15.5668" stroke="black" stroke-width="1.46449" stroke-linecap="round" stroke-linejoin="round"></path><path d="M15.1475 30.5134L15.6361 30.3066" stroke="black" stroke-width="1.46449" stroke-linecap="round" stroke-linejoin="round"></path><path d="M36.3633 21.5525L36.8519 21.3457" stroke="black" stroke-width="1.46449" stroke-linecap="round" stroke-linejoin="round"></path><path d="M28.598 32.1816H23.5254" stroke="black" stroke-width="1.46449" stroke-linecap="round" stroke-linejoin="round"></path><path d="M24.75 25.9297C24.75 25.2397 25.31 24.6797 26 24.6797C26.69 24.6797 27.25 25.2397 27.25 25.9297C27.25 26.6197 26.69 27.1797 26 27.1797C25.31 27.1797 24.75 26.6197 24.75 25.9297Z" fill="#F3F3F3"></path><path d="M24.75 25.9297C24.75 25.2397 25.31 24.6797 26 24.6797C26.69 24.6797 27.25 25.2397 27.25 25.9297C27.25 26.6197 26.69 27.1797 26 27.1797C25.31 27.1797 24.75 26.6197 24.75 25.9297Z" stroke="black" stroke-width="1.46449" stroke-linecap="round" stroke-linejoin="round"></path><path d="M21.1035 40.2109H31.1035" stroke="black" stroke-width="1.46449" stroke-linecap="round" stroke-linejoin="round"></path><path d="M26.1038 25.92L29.5556 19.8498" stroke="black" stroke-width="1.46449" stroke-linecap="round" stroke-linejoin="round"></path></g></svg>