<svg xmlns="http://www.w3.org/2000/svg" width="51" height="51" viewBox="0 0 51 51" fill="none"><rect x="0.256836" y="0.519531" width="50.2113" height="50.2113" rx="8.36854" fill="white" fill-opacity="0.1"></rect><rect x="0.77987" y="1.04257" width="49.1652" height="49.1652" rx="7.84551" stroke="white" stroke-opacity="0.1" stroke-width="1.04607"></rect><mask id="mask0_1076_8049" style="mask-type:luminance" maskUnits="userSpaceOnUse" x="5" y="5" width="40" height="41"><path d="M45 5.99805H5V45.998H45V5.99805Z" fill="white"></path></mask><g mask="url(#mask0_1076_8049)"><path d="M41.0408 30.6296C41.0408 31.6788 40.1682 32.5296 39.0916 32.5296H30.6482C29.5716 32.5296 28.6982 31.6788 28.6982 30.6296C28.6982 27.8829 30.9833 25.6562 33.8016 25.6562H35.9374C38.7558 25.6562 41.0408 27.8829 41.0408 30.6296Z" fill="#F1F1F1"></path><path d="M41.0408 30.6296C41.0408 31.6787 40.1682 32.5296 39.0916 32.5296H30.6482C29.5716 32.5296 28.6982 31.6787 28.6982 30.6296C28.6982 27.8829 30.9833 25.6562 33.8016 25.6562H35.9374C38.7558 25.6562 41.0408 27.8829 41.0408 30.6296Z" stroke="#1B1B1B" stroke-width="1.5" stroke-linecap="round" stroke-linejoin="round"></path><path d="M31.4326 19.7013C31.4326 17.803 32.9718 16.2646 34.8693 16.2646C36.7676 16.2646 38.3068 17.803 38.3068 19.7013C38.3068 21.5996 36.7676 23.138 34.8693 23.138C32.9718 23.138 31.4326 21.5996 31.4326 19.7013Z" fill="#F1F1F1"></path><path d="M31.4326 19.7013C31.4326 17.803 32.9718 16.2646 34.8693 16.2646C36.7676 16.2646 38.3068 17.803 38.3068 19.7013C38.3068 21.5996 36.7676 23.138 34.8693 23.138C32.9718 23.138 31.4326 21.5996 31.4326 19.7013Z" stroke="#1B1B1B" stroke-width="1.5" stroke-linecap="round" stroke-linejoin="round"></path><path d="M21.3004 32.8464C21.3004 33.8955 20.427 34.7464 19.3504 34.7464H10.907C9.83036 34.7464 8.95703 33.8955 8.95703 32.8464C8.95703 30.0997 11.2429 27.873 14.0612 27.873H16.1962C19.0145 27.873 21.3004 30.0997 21.3004 32.8464Z" fill="#F1F1F1"></path><path d="M21.3004 32.8464C21.3004 33.8955 20.427 34.7464 19.3504 34.7464H10.907C9.83036 34.7464 8.95703 33.8955 8.95703 32.8464C8.95703 30.0997 11.2429 27.873 14.0612 27.873H16.1962C19.0145 27.873 21.3004 30.0997 21.3004 32.8464Z" stroke="#1B1B1B" stroke-width="1.5" stroke-linecap="round" stroke-linejoin="round"></path><path d="M11.6934 21.9191C11.6934 20.0208 13.2317 18.4824 15.1292 18.4824C17.0275 18.4824 18.5667 20.0208 18.5667 21.9191C18.5667 23.8174 17.0275 25.3558 15.1292 25.3558C13.2317 25.3558 11.6934 23.8174 11.6934 21.9191Z" fill="#F1F1F1"></path><path d="M11.6934 21.9191C11.6934 20.0208 13.2317 18.4824 15.1292 18.4824C17.0275 18.4824 18.5667 20.0208 18.5667 21.9191C18.5667 23.8174 17.0275 25.3558 15.1292 25.3558C13.2317 25.3558 11.6934 23.8174 11.6934 21.9191Z" stroke="#1B1B1B" stroke-width="1.5" stroke-linecap="round" stroke-linejoin="round"></path><path d="M31.6452 32.7024C31.6452 33.8324 30.7052 34.749 29.546 34.749H20.4527C19.2935 34.749 18.3535 33.8324 18.3535 32.7024C18.3535 29.744 20.8143 27.3457 23.8493 27.3457H26.1493C29.1843 27.3457 31.6452 29.744 31.6452 32.7024Z" fill="#F1F1F1"></path><path d="M31.6452 32.7024C31.6452 33.8324 30.7052 34.749 29.546 34.749H20.4527C19.2935 34.749 18.3535 33.8324 18.3535 32.7024C18.3535 29.744 20.8143 27.3457 23.8493 27.3457H26.1493C29.1843 27.3457 31.6452 29.744 31.6452 32.7024Z" stroke="#1B1B1B" stroke-width="1.5" stroke-linecap="round" stroke-linejoin="round"></path><path d="M21.2988 20.9497C21.2988 18.9055 22.9563 17.248 25.0005 17.248C27.0447 17.248 28.7005 18.9055 28.7005 20.9497C28.7005 22.9939 27.0447 24.6514 25.0005 24.6514C22.9563 24.6514 21.2988 22.9939 21.2988 20.9497Z" fill="#F1F1F1"></path><path d="M21.2988 20.9497C21.2988 18.9055 22.9563 17.248 25.0005 17.248C27.0447 17.248 28.7005 18.9055 28.7005 20.9497C28.7005 22.9939 27.0447 24.6514 25.0005 24.6514C22.9563 24.6514 21.2988 22.9939 21.2988 20.9497Z" stroke="#1B1B1B" stroke-width="1.5" stroke-linecap="round" stroke-linejoin="round"></path></g></svg>