<svg xmlns="http://www.w3.org/2000/svg" width="52" height="51" viewBox="0 0 52 51" fill="none"><rect x="0.896484" y="0.314453" width="50.2113" height="50.2113" rx="8.36854" fill="white" fill-opacity="0.1"></rect><rect x="1.41952" y="0.837487" width="49.1652" height="49.1652" rx="7.84551" stroke="white" stroke-opacity="0.1" stroke-width="1.04607"></rect><mask id="mask0_1076_8265" style="mask-type:luminance" maskUnits="userSpaceOnUse" x="6" y="5" width="40" height="41"><path d="M46 5.00098H6V45.001H46V5.00098Z" fill="white"></path></mask><g mask="url(#mask0_1076_8265)"><path d="M23.1499 38.6194L21.3325 35.0266C20.9887 34.3469 20.1062 34.1594 19.5155 34.6403L16.3934 37.1825C15.5201 37.893 14.2397 37.1094 14.474 36.0097C14.474 36.0097 15.568 30.4189 16.1335 28.3735C16.6989 26.3281 19.887 17.5944 19.887 17.5944L30.5393 20.9089C30.5393 20.9089 27.5007 29.2012 26.7369 31.7047C25.9731 34.2083 25.3801 38.3297 25.3801 38.3297C25.1459 39.4302 23.6583 39.6234 23.1499 38.6194Z" fill="#F3F3F3"></path><path d="M23.1499 38.6194L21.3325 35.0266C20.9887 34.3469 20.1062 34.1594 19.5155 34.6403L16.3934 37.1825C15.5201 37.893 14.2397 37.1094 14.474 36.0097C14.474 36.0097 15.568 30.4189 16.1335 28.3735C16.6989 26.3281 19.887 17.5944 19.887 17.5944L30.5393 20.9089C30.5393 20.9089 27.5007 29.2012 26.7369 31.7047C25.9731 34.2083 25.3801 38.3297 25.3801 38.3297C25.1459 39.4302 23.6583 39.6234 23.1499 38.6194Z" stroke="black" stroke-width="1.39127" stroke-linecap="round" stroke-linejoin="round"></path><path d="M36.8249 36.3333L37.0627 32.3138C37.1076 31.5535 37.8421 31.0306 38.5753 31.2366L42.4512 32.3262C43.535 32.6305 44.3979 31.4024 43.7458 30.4864C43.7458 30.4864 40.3642 28.068 39.6062 26.2472C38.8482 24.4264 33.0873 16.1026 33.0873 16.1026L23.444 21.7119C23.444 21.7119 29.411 29.5246 30.081 31.1235C30.751 32.7224 34.6638 36.9547 34.6638 36.9547C35.316 37.8715 36.7586 37.457 36.8249 36.3333Z" fill="#F3F3F3"></path><path d="M36.8249 36.3333L37.0627 32.3138C37.1076 31.5535 37.8421 31.0306 38.5753 31.2366L42.4512 32.3262C43.535 32.6305 44.3979 31.4024 43.7458 30.4864C43.7458 30.4864 40.3642 28.068 39.6062 26.2472C38.8482 24.4264 33.0873 16.1026 33.0873 16.1026L23.444 21.7119C23.444 21.7119 29.411 29.5246 30.081 31.1235C30.751 32.7224 34.6638 36.9547 34.6638 36.9547C35.316 37.8715 36.7586 37.457 36.8249 36.3333Z" stroke="black" stroke-width="1.39127" stroke-linecap="round" stroke-linejoin="round"></path><path d="M19.5499 25.8301C15.5509 21.8936 15.5002 15.4591 19.4367 11.4602C23.3732 7.46121 29.8077 7.41054 33.8066 11.347C37.8056 15.2835 37.8562 21.718 33.9198 25.7169C29.9833 29.7159 23.5488 29.7665 19.5499 25.8301Z" fill="#F3F3F3"></path><path d="M19.5499 25.8301C15.5509 21.8936 15.5002 15.4591 19.4367 11.4602C23.3732 7.46121 29.8077 7.41054 33.8066 11.347C37.8056 15.2835 37.8562 21.718 33.9198 25.7169C29.9833 29.7159 23.5488 29.7665 19.5499 25.8301Z" stroke="black" stroke-width="1.39127" stroke-linecap="round" stroke-linejoin="round"></path><path d="M21.6343 23.7122C18.8042 20.9263 18.7683 16.3748 21.5542 13.5447C24.3401 10.7156 28.8916 10.6798 31.7217 13.4647C34.5508 16.2506 34.5866 20.802 31.8017 23.6321C29.0159 26.4622 24.4644 26.4981 21.6343 23.7122Z" stroke="black" stroke-width="1.70228" stroke-linecap="round" stroke-linejoin="round"></path><path d="M24.0039 18.3076C24.0039 18.3076 24.0582 18.3674 24.1477 18.4657" stroke="black" stroke-width="1.39127" stroke-linecap="round" stroke-linejoin="round"></path></g></svg>